# xmcd
#
# Track frame offsets:
#	150
#	15489
#	27660
#	39065
#	55551
#	75618
#	87580
#	99132
#	113852
#	125494
#
# Disc length: 1888 seconds
# Revision: 0
# Processed by: cddbd v1.5.2PL0 Copyright (c) Steve Scherf et al.
# Submitted via: dBpowerAMP V12.0
#
DISCID=6c075e0a
DTITLE=The Mavericks - Hey! Merry Christmas!
DYEAR=2018
DGENRE=Christmas;Country
TTITLE0=Christmas Time Is (Coming 'Round Again)
TTITLE1=Santa Does
TTITLE2=I Have Wanted You (for Christmas)
TTITLE3=Christmas For Me (Is You)
TTITLE4=Santa Wants To Take You For A Ride
TTITLE5=It's Christmas Without You
TTITLE6=Christmas (Baby Please Come Home)
TTITLE7=Hey! Merry Christmas!
TTITLE8=One More Christmas
TTITLE9=Happy Holiday
EXTD=
EXTT0=
EXTT1=
EXTT2=
EXTT3=
EXTT4=
EXTT5=
EXTT6=
EXTT7=
EXTT8=
EXTT9=
PLAYORDER=
